<svg width="44" height="44" xmlns="http://www.w3.org/2000/svg" fill="none" class="w_places">

 <g>
  <title>Слой 1</title>
  <path stroke="null" id="svg_1" fill="black" d="m37.495,17.01061c0.10417,0.37011 0.34199,0.58425 0.70585,0.4783c0.36387,-0.10596 0.57441,-0.49187 0.47024,-0.86198l-1.17609,0.38368zm-3.81041,-7.83042l0.49353,-0.48365l-0.00046,-0.00056l-0.49307,0.48421zm-8.85637,-4.95858l0.13844,-0.68271l-0.00128,-0.00027l-0.13716,0.68298zm-9.98159,1.03574l-0.26993,-0.64074l-0.00073,0.0003l0.27066,0.64044zm-7.75414,6.67013l-0.57596,-0.37779l-0.00001,0.00001l0.57597,0.37778zm2.14855,22.88718l0.49558,-0.48155l-0.00031,-0.00028l-0.49527,0.48183zm21.81387,2.25532l0.39018,0.57301l0.00018,-0.0001l-0.39036,-0.57291zm7.00084,-7.87758c0.14017,-0.35756 -0.03125,-0.76309 -0.38279,-0.90566c-0.35162,-0.14258 -0.7503,0.03169 -0.89048,0.38934l1.27327,0.51632zm-0.707,-12.54902c-0.09521,0.37262 0.12464,0.75314 0.49098,0.84999c0.36633,0.09685 0.74044,-0.12669 0.83565,-0.4993l-1.32663,-0.35069zm3.13409,-6.7234c0.09512,-0.37262 -0.12464,-0.75318 -0.49098,-0.85001c-0.36633,-0.09684 -0.74043,0.12672 -0.83565,0.49933l1.32663,0.35068zm-2.65325,7.57079c0.36478,0.10251 0.74226,-0.11516 0.84305,-0.48629c0.10088,-0.37104 -0.11322,-0.755 -0.478,-0.85752l-0.36505,1.34381zm-6.37847,-3.23924c-0.36478,-0.10252 -0.74226,0.11516 -0.84305,0.48629c-0.10088,0.37104 0.11312,0.75499 0.478,0.85751l0.36505,-1.3438zm-11.31169,2.56724c0,-0.38498 -0.30675,-0.69709 -0.68533,-0.69709c-0.37849,0 -0.68534,0.31211 -0.68534,0.69709l1.37067,0zm-0.68533,7.768l-0.68534,0c0,0.38498 0.30685,0.69709 0.68534,0.69709l0,-0.69709zm7.6371,0.69709c0.37849,0 0.68534,-0.31211 0.68534,-0.69709c0,-0.38498 -0.30685,-0.69709 -0.68534,-0.69709l0,1.39418zm11.57989,-8.65693c-0.83785,-2.97732 -2.38049,-5.70021 -4.49297,-7.93039l-0.98707,0.96731c1.95696,2.06605 3.38611,4.58861 4.16236,7.34676l1.31768,-0.38368zm-4.49343,-7.93095c-2.48996,-2.62294 -5.70025,-4.42036 -9.211,-5.15708l-0.27697,1.36542c3.24045,0.68001 6.20366,2.33906 8.50191,4.76008l0.98606,-0.96842zm-9.21228,-5.15735c-3.49,-0.72532 -7.1146,-0.34922 -10.38868,1.07798l0.53986,1.28147c3.01749,-1.31534 6.358,-1.66196 9.57441,-0.99349l0.27441,-1.36596zm-10.38941,1.07828c-3.30429,1.44463 -6.11024,3.85832 -8.05944,6.93278l1.15192,0.75556c1.80151,-2.84149 4.39485,-5.0723 7.44875,-6.40747l-0.54123,-1.28087zm-8.05945,6.93279c-4.74657,7.48721 -3.82459,17.30856 2.22925,23.74679l0.99054,-0.96366c-5.61554,-5.97211 -6.47079,-15.08242 -2.06785,-22.02758l-1.15194,-0.75555zm2.22895,23.74642c5.96866,6.35569 15.5958,7.35104 22.69962,2.34687l-0.78037,-1.14611c-6.54943,4.61362 -15.42525,3.69597 -20.9281,-2.16377l-0.99115,0.96301zm22.6998,2.34677c2.97198,-2.09489 5.27124,-5.0341 6.61048,-8.45049l-1.27327,-0.51632c-1.23936,3.16182 -3.36728,5.88205 -6.11794,7.82089l0.78073,1.14592zm7.23011,-20.64882l1.80746,-7.07409l-1.32663,-0.35068l-1.80746,7.07408l1.32663,0.35069zm-0.48074,-0.84711l-6.74352,-1.89543l-0.36505,1.3438l6.74352,1.89544l0.36505,-1.34381zm-19.42588,0.67181l0,7.768l1.37067,0l0,-7.768l-1.37067,0zm0.68534,8.46509l7.6371,0l0,-1.39418l-7.6371,0l0,1.39418z"/>
 </g>
</svg>