<svg xmlns="http://www.w3.org/2000/svg" viewBox="0 0 34 34" fill="none">
    <path fill-rule="evenodd" clip-rule="evenodd" d="M26.1149 23.9652V21.6646C26.1149 21.0949 26.3412 20.5486 26.744 20.1457L28.3709 18.5189C29.2097 17.68 29.2097 16.32 28.3709 15.4812L26.744 13.8543C26.3412 13.4515 26.1149 12.9051 26.1149 12.3354V10.0331C26.1149 8.84683 25.1532 7.88513 23.9669 7.88513H21.6646C21.0949 7.88513 20.5486 7.65882 20.1457 7.25599L18.5189 5.62913C17.68 4.79029 16.32 4.79029 15.4812 5.62913L13.8543 7.25599C13.4515 7.65882 12.9051 7.88513 12.3354 7.88513H10.0331C9.46316 7.88513 8.91654 8.11168 8.51366 8.51488C8.11078 8.91808 7.88468 9.46487 7.88513 10.0349V12.3354C7.88513 12.9051 7.65882 13.4515 7.25599 13.8543L5.62913 15.4812C4.79029 16.32 4.79029 17.68 5.62913 18.5189L7.25599 20.1457C7.65882 20.5486 7.88513 21.0949 7.88513 21.6646V23.9652C7.88513 25.1515 8.84683 26.1132 10.0331 26.1132H12.3354C12.9051 26.1132 13.4515 26.3395 13.8543 26.7423L15.4812 28.3692C16.32 29.208 17.68 29.208 18.5189 28.3692L20.1457 26.7423C20.5486 26.3395 21.0949 26.1132 21.6646 26.1132H23.9652C24.5352 26.1136 25.0819 25.8875 25.4851 25.4846C25.8883 25.0818 26.1149 24.5352 26.1149 23.9652Z" stroke="black" stroke-width="1.5" stroke-linecap="round" stroke-linejoin="round"></path>
    <path fill-rule="evenodd" clip-rule="evenodd" d="M12.3405 14.6703C11.8693 14.1992 11.7284 13.4906 11.9833 12.8749C12.2383 12.2593 12.8391 11.8579 13.5054 11.8579C14.1717 11.8579 14.7725 12.2593 15.0274 12.8749C15.2824 13.4906 15.1414 14.1992 14.6703 14.6703C14.0269 15.3136 12.9839 15.3136 12.3405 14.6703Z" stroke="black" stroke-width="1.5" stroke-linecap="round" stroke-linejoin="round"></path>
    <path fill-rule="evenodd" clip-rule="evenodd" d="M19.3297 21.6593C18.8585 21.1882 18.7175 20.4796 18.9725 19.8639C19.2275 19.2483 19.8282 18.8469 20.4945 18.8469C21.1609 18.8469 21.7616 19.2483 22.0166 19.8639C22.2716 20.4796 22.1306 21.1882 21.6594 21.6593C21.016 22.3026 19.973 22.3026 19.3297 21.6593Z" stroke="black" stroke-width="1.5" stroke-linecap="round"></path>
    <path d="M21.6595 12.3389L12.3389 21.6612" stroke="black" stroke-width="1.5" stroke-linecap="round"></path>
  </svg>