<svg width="26" height="26" viewBox="0 0 26 26" fill="none" xmlns="http://www.w3.org/2000/svg">
<g id="ph:phone-call-light">
<path id="Vector" d="M15.0389 5.1427C15.0576 5.07273 15.0898 5.00712 15.1339 4.94962C15.1779 4.89212 15.2328 4.84387 15.2955 4.80762C15.3582 4.77137 15.4274 4.74783 15.4992 4.73835C15.571 4.72888 15.644 4.73364 15.7139 4.75238C17.0448 5.09956 18.2591 5.79528 19.2317 6.76789C20.2043 7.7405 20.9 8.95482 21.2472 10.2858C21.2659 10.3557 21.2707 10.4287 21.2612 10.5005C21.2517 10.5723 21.2282 10.6415 21.1919 10.7042C21.1557 10.7669 21.1074 10.8218 21.0499 10.8658C20.9924 10.9099 20.9268 10.9421 20.8569 10.9608C20.8104 10.9731 20.7626 10.9793 20.7145 10.9792C20.5931 10.9792 20.4751 10.9392 20.3787 10.8653C20.2824 10.7914 20.2132 10.6878 20.1818 10.5705C19.8838 9.42723 19.2863 8.38415 18.4509 7.54873C17.6155 6.71332 16.5724 6.11579 15.4292 5.81773C15.3593 5.79907 15.2937 5.76681 15.2362 5.72278C15.1787 5.67874 15.1304 5.62381 15.0942 5.56112C15.0579 5.49843 15.0344 5.4292 15.0249 5.35741C15.0154 5.28561 15.0202 5.21265 15.0389 5.1427ZM14.6945 8.75662C16.0308 9.11296 16.8867 9.96891 17.243 11.3052C17.2744 11.4225 17.3436 11.5261 17.4399 11.6C17.5363 11.6739 17.6543 11.714 17.7757 11.7139C17.8237 11.714 17.8716 11.7078 17.918 11.6955C17.988 11.6769 18.0536 11.6446 18.1111 11.6006C18.1686 11.5565 18.2169 11.5016 18.2531 11.4389C18.2894 11.3762 18.3129 11.307 18.3224 11.2352C18.3319 11.1634 18.3271 11.0904 18.3084 11.0205C17.8492 9.30215 16.6975 8.15047 14.9792 7.69127C14.9093 7.67258 14.8363 7.66784 14.7646 7.67734C14.6928 7.68684 14.6236 7.71038 14.5609 7.74663C14.4982 7.78287 14.4433 7.83111 14.3992 7.88858C14.3552 7.94605 14.3229 8.01164 14.3042 8.08159C14.2855 8.15154 14.2808 8.22449 14.2903 8.29627C14.2998 8.36805 14.3233 8.43726 14.3596 8.49994C14.3958 8.56262 14.4441 8.61755 14.5015 8.66159C14.559 8.70564 14.6246 8.73792 14.6945 8.75662ZM21.9901 17.6651C21.8328 18.8657 21.2436 19.9679 20.3328 20.7657C19.422 21.5634 18.2518 22.0022 17.041 22C9.85008 22 4.00001 16.1498 4.00001 8.95867C3.99769 7.74825 4.43607 6.57838 5.23327 5.66759C6.03047 4.75679 7.13197 4.16736 8.332 4.00939C8.60825 3.97582 8.88793 4.03278 9.12904 4.17172C9.37016 4.31067 9.55968 4.52409 9.66916 4.77993L11.6069 9.10561C11.6925 9.30144 11.7279 9.51551 11.7099 9.72846C11.692 9.9414 11.6212 10.1465 11.5041 10.3253C11.4923 10.3434 11.4794 10.3609 11.4655 10.3776L9.53049 12.6791C9.51874 12.703 9.51263 12.7292 9.51263 12.7558C9.51263 12.7824 9.51874 12.8086 9.53049 12.8325C10.234 14.2725 11.7438 15.7714 13.204 16.474C13.2284 16.4851 13.255 16.4904 13.2818 16.4894C13.3086 16.4885 13.3348 16.4813 13.3583 16.4684L15.6258 14.5398C15.642 14.5258 15.6592 14.5129 15.6772 14.5012C15.8551 14.3826 16.0598 14.3102 16.2728 14.2907C16.4858 14.2711 16.7002 14.305 16.8968 14.3892L21.2352 16.3334C21.4877 16.4453 21.6974 16.6355 21.8333 16.8758C21.9693 17.1162 22.0243 17.3939 21.9901 17.6679V17.6651ZM20.8982 17.5292C20.9013 17.4908 20.8922 17.4524 20.8722 17.4194C20.8523 17.3865 20.8225 17.3606 20.7871 17.3455L16.4477 15.4013C16.424 15.3921 16.3986 15.3882 16.3732 15.3898C16.3479 15.3914 16.3232 15.3984 16.3008 15.4104L14.0342 17.3391C14.0177 17.3529 14.0002 17.3657 13.9828 17.3777C13.7979 17.501 13.5842 17.5742 13.3626 17.5903C13.141 17.6064 12.9189 17.5648 12.7182 17.4695C11.032 16.6549 9.3514 14.9898 8.5368 13.3192C8.44099 13.1197 8.39834 12.8987 8.41298 12.6778C8.42762 12.4569 8.49906 12.2435 8.62037 12.0583C8.63227 12.0399 8.64547 12.0224 8.65986 12.0059L10.5931 9.70165C10.6041 9.6776 10.6098 9.65144 10.6098 9.62497C10.6098 9.5985 10.6041 9.57234 10.5931 9.54828L8.65986 5.22168C8.6471 5.18694 8.62414 5.15686 8.59398 5.13539C8.56383 5.11392 8.52789 5.10206 8.49088 5.10137H8.46976C7.53572 5.22563 6.67883 5.68561 6.0591 6.39543C5.43938 7.10525 5.09919 8.01637 5.10206 8.95867C5.10206 15.5418 10.4581 20.8979 17.041 20.8979C17.9834 20.9008 18.8946 20.5604 19.6044 19.9405C20.3143 19.3206 20.7741 18.4634 20.8982 17.5292Z" fill="black"/>
</g>
</svg>
