<svg width="26" height="26" viewBox="0 0 26 26" fill="none" xmlns="http://www.w3.org/2000/svg">
<path d="M13 24.375C10.7502 24.375 8.551 23.7079 6.68039 22.458C4.80978 21.2081 3.35181 19.4315 2.49087 17.353C1.62992 15.2745 1.40466 12.9874 1.84356 10.7809C2.28247 8.57432 3.36584 6.54749 4.95666 4.95667C6.54748 3.36584 8.57431 2.28248 10.7808 1.84357C12.9874 1.40467 15.2745 1.62993 17.353 2.49088C19.4315 3.35182 21.2081 4.80978 22.458 6.68039C23.7079 8.551 24.375 10.7502 24.375 13C24.375 16.0168 23.1766 18.9101 21.0433 21.0433C18.9101 23.1766 16.0168 24.375 13 24.375ZM13 3.25001C11.0716 3.25001 9.18657 3.82183 7.58319 4.89318C5.97981 5.96452 4.73013 7.48726 3.99217 9.26884C3.25422 11.0504 3.06114 13.0108 3.43734 14.9021C3.81355 16.7934 4.74214 18.5307 6.10571 19.8943C7.46927 21.2579 9.20655 22.1865 11.0979 22.5627C12.9892 22.9389 14.9496 22.7458 16.7312 22.0078C18.5127 21.2699 20.0355 20.0202 21.1068 18.4168C22.1782 16.8134 22.75 14.9284 22.75 13C22.75 10.4141 21.7228 7.93419 19.8943 6.10571C18.0658 4.27723 15.5859 3.25001 13 3.25001Z" fill="black"/>
<path d="M16.7294 17.875L12.1875 13.3331V5.6875H13.8125V12.6588L17.875 16.7294L16.7294 17.875Z" fill="black"/>
</svg>
