<?xml version="1.0" encoding="utf-8"?><svg viewBox="0 0 770 442.01" xmlns="http://www.w3.org/2000/svg" xmlns:xlink="http://www.w3.org/1999/xlink"><style>:root>svg{display:none}:root>svg:target{display:block}</style><svg fill="none" viewBox="0 0 18 11" id="arrowDown" xmlns="http://www.w3.org/2000/svg"><path d="M16 2L9 9 2 2" stroke="#000" stroke-width="3" stroke-linecap="round" stroke-linejoin="round"/></svg><svg fill="none" viewBox="0 0 28 28" id="arrowLeft" xmlns="http://www.w3.org/2000/svg"><path d="M16 8l-6 6 6 6" stroke="#fff" stroke-width="1.5" stroke-linecap="round" stroke-linejoin="round"/></svg><svg fill="none" viewBox="0 0 28 28" id="arrowRight" xmlns="http://www.w3.org/2000/svg"><path d="M12 20l6-6-6-6" stroke="#000" stroke-width="1.5" stroke-linecap="round" stroke-linejoin="round"/></svg><svg viewBox="0 0 52 52" fill="none" id="auto" xmlns="http://www.w3.org/2000/svg"><path clip-rule="evenodd" d="M12.08 17.785C13.702 13.77 15.655 11 20.075 11h11.85c4.416 0 6.37 2.77 7.996 6.785l1.624 4.296c1.21.015 2.32.67 2.92 1.72.352.6.536 1.282.533 1.977v5.539a3.745 3.745 0 01-1.726 3.2 3.268 3.268 0 01-1.727.494H10.454c-.61 0-1.209-.171-1.727-.494A3.745 3.745 0 017 31.317v-5.54a3.867 3.867 0 01.534-1.973 3.407 3.407 0 012.92-1.72l1.625-4.299z" stroke="#000" stroke-width="1.5" stroke-linecap="round" stroke-linejoin="round"/><path d="M14.66 35.013a.75.75 0 00-1.5 0h1.5zm-.75 2.772h-.75v.024l.75-.024zm-2.592 2.77l-.027.75h.052l-.025-.75zm-2.59-2.772l.749.025v-.025h-.75zm.75-3.266a.75.75 0 00-1.5 0h1.5zm.976-13.186a.75.75 0 100 1.5v-1.5zm31.092 1.5a.75.75 0 000-1.5v1.5zm-2.704 12.18a.75.75 0 10-1.5 0h1.5zm-.75 2.772l.749.048a.76.76 0 00.001-.048h-.75zm1.246 2.386l.388-.641-.388.641zm2.691 0l-.388-.641.388.641zm1.246-2.386h-.75l.001.048.749-.048zm.75-3.266a.75.75 0 00-1.5 0h1.5zm-30.691-6.323a.75.75 0 100 1.5v-1.5zm2.11 1.5a.75.75 0 000-1.5v1.5zm21.111-1.5a.75.75 0 100 1.5v-1.5zm2.111 1.5a.75.75 0 000-1.5v1.5zm-25.506 5.32v2.771h1.5v-2.772h-1.5zm0 2.795a1.935 1.935 0 01-1.868 1.996l.051 1.5a3.435 3.435 0 003.316-3.544l-1.499.048zm-1.816 1.996a1.935 1.935 0 01-1.867-1.997l-1.5-.05a3.435 3.435 0 003.314 3.546l.053-1.499zm-1.867-2.022v-3.266h-1.5v3.266h1.5zm.977-14.952h31.092v-1.5H10.454v1.5zm26.888 12.18v2.772h1.5v-2.772h-1.5zm.002 2.724a3.346 3.346 0 001.605 3.076l.777-1.283a1.847 1.847 0 01-.885-1.697l-1.497-.096zm1.605 3.076a3.347 3.347 0 003.469 0l-.777-1.283a1.847 1.847 0 01-1.915 0l-.777 1.283zm3.469 0a3.347 3.347 0 001.605-3.076l-1.497.096a1.846 1.846 0 01-.885 1.697l.777 1.283zm1.607-3.028v-3.266h-1.5v3.266h1.5zm-30.691-8.089h2.11v-1.5h-2.11v1.5zm23.221 0h2.111v-1.5h-2.11v1.5z" fill="#000"/></svg><svg fill="none" viewBox="0 0 24 16" id="check" xmlns="http://www.w3.org/2000/svg"><path d="M3.5 8l6.5 5.5L21.5 2" stroke="#4DCDCD" stroke-width="3"/></svg><svg viewBox="0 0 52 52" fill="none" id="copyCheck" xmlns="http://www.w3.org/2000/svg"><path d="M18.5 11.75a.75.75 0 000-1.5v1.5zm15-1.5a.75.75 0 000 1.5v-1.5zm-15 0a.75.75 0 000 1.5v-1.5zm15 1.5a.75.75 0 000-1.5v1.5zM19.25 11a.75.75 0 00-1.5 0h1.5zm-1.5 2.5a.75.75 0 001.5 0h-1.5zm0-2.5a.75.75 0 001.5 0h-1.5zm1.5-5a.75.75 0 00-1.5 0h1.5zm15 5a.75.75 0 00-1.5 0h1.5zm-1.5 2.5a.75.75 0 001.5 0h-1.5zm0-2.5a.75.75 0 001.5 0h-1.5zm1.5-5a.75.75 0 00-1.5 0h1.5zM18.5 10.25c-5.937 0-10.75 4.813-10.75 10.75h1.5a9.25 9.25 0 019.25-9.25v-1.5zM7.75 21v15h1.5V21h-1.5zm0 15c0 5.937 4.813 10.75 10.75 10.75v-1.5A9.25 9.25 0 019.25 36h-1.5zM18.5 46.75h15v-1.5h-15v1.5zm15 0c5.937 0 10.75-4.813 10.75-10.75h-1.5a9.25 9.25 0 01-9.25 9.25v1.5zM44.25 36V21h-1.5v15h1.5zm0-15c0-5.937-4.813-10.75-10.75-10.75v1.5A9.25 9.25 0 0142.75 21h1.5zM18.5 11.75h15v-1.5h-15v1.5zm-.75-.75v2.5h1.5V11h-1.5zm1.5 0V6h-1.5v5h1.5zm13.5 0v2.5h1.5V11h-1.5zm1.5 0V6h-1.5v5h1.5z" fill="#000"/><path d="M16 28.5l5 7.5 15-12.5" stroke="#000" stroke-width="1.5" stroke-linecap="round" stroke-linejoin="round"/></svg><svg fill="none" class="gw_places" viewBox="0 0 44 44" id="credit" xmlns="http://www.w3.org/2000/svg"><path stroke="null" fill="#000" d="M37.495 17.01c.104.37.342.585.706.479a.699.699 0 00.47-.862l-1.176.384zm-3.81-7.83l.493-.483v-.001l-.493.484zm-8.857-4.958l.139-.683h-.002l-.137.683zm-9.981 1.035l-.27-.64h-.001l.27.64zm-7.755 6.67l-.575-.377h0l.575.377zm2.149 22.888l.496-.482h0l-.496.482zm21.814 2.255l.39.573h0l-.39-.573zm7-7.878a.701.701 0 00-.382-.905.682.682 0 00-.89.39l1.273.515zm-.706-12.549a.698.698 0 00.49.85.684.684 0 00.836-.499l-1.326-.35zm3.134-6.723a.698.698 0 00-.491-.85.684.684 0 00-.836.5l1.327.35zm-2.653 7.57a.684.684 0 00.843-.486.699.699 0 00-.478-.857l-.365 1.344zm-6.379-3.238a.684.684 0 00-.843.486c-.1.37.113.755.478.857l.365-1.343zM20.14 16.819a.691.691 0 00-.685-.697.691.691 0 00-.685.697h1.37zm-.685 7.768h-.685c0 .385.307.697.685.697v-.697zm7.637.697a.691.691 0 00.686-.697.691.691 0 00-.686-.697v1.394zm11.58-8.657a19.022 19.022 0 00-4.493-7.93l-.987.967a17.624 17.624 0 014.162 7.347l1.318-.384zm-4.493-7.931a17.724 17.724 0 00-9.211-5.157l-.277 1.365a16.36 16.36 0 018.502 4.76l.986-.968zm-9.213-5.157a17.214 17.214 0 00-10.388 1.078l.54 1.281a15.865 15.865 0 019.574-.993l.274-1.366zM14.576 4.617a18.173 18.173 0 00-8.06 6.933l1.152.755a16.797 16.797 0 017.45-6.407l-.542-1.281zm-8.06 6.933c-4.746 7.487-3.824 17.308 2.23 23.746l.99-.963C4.121 28.36 3.266 19.25 7.668 12.305l-1.151-.755zm2.23 23.746c5.968 6.356 15.595 7.351 22.7 2.347l-.781-1.146c-6.55 4.614-15.426 3.696-20.928-2.164l-.992.963zm22.7 2.347a18.663 18.663 0 006.61-8.45l-1.274-.517a17.271 17.271 0 01-6.117 7.821l.78 1.146zm7.23-20.649l1.807-7.074-1.327-.35-1.807 7.073 1.326.351zm-.481-.847l-6.744-1.895-.365 1.343 6.744 1.896.365-1.344zm-19.426.672v7.768h1.37v-7.768h-1.37zm.685 8.465h7.637V23.89h-7.637v1.394z"/></svg><svg fill="none" viewBox="0 0 32 32" id="done" xmlns="http://www.w3.org/2000/svg"><g clip-path="url(#hclip0_2071_830)" fill="#4DCDCD"><path d="M16 30a14 14 0 110-28 14 14 0 010 28zm0 2a16 16 0 100-32 16 16 0 000 32z"/><path d="M21.94 9.94l-.04.044-6.946 8.85-4.186-4.188a1.5 1.5 0 00-2.12 2.12l5.292 5.294a1.5 1.5 0 002.158-.04l7.984-9.98a1.5 1.5 0 00-2.142-2.1z"/></g><defs><clipPath id="hclip0_2071_830"><path fill="#fff" d="M0 0h32v32H0z"/></clipPath></defs></svg><svg fill="none" viewBox="0 0 26 26" id="location" xmlns="http://www.w3.org/2000/svg"><path fill="#404040" d="M0 0h26v26H0z"/><g clip-path="url(#iclip0_0_1)"><path fill="#fff" d="M-1175-66H745v11486h-1920z"/><g fill="#000"><path d="M13 22.1l-.4-.449c-.25-.25-6.1-7.13-6.1-11.269C6.5 6.792 9.4 3.9 13 3.9s6.5 2.892 6.5 6.482c0 4.139-5.85 11.02-6.1 11.32l-.4.398zm0-17.203c-3.05 0-5.5 2.444-5.5 5.485 0 3.191 4.2 8.577 5.5 10.172 1.3-1.595 5.5-6.98 5.5-10.172A5.477 5.477 0 0013 4.897z"/><path d="M13 12.875c-1.4 0-2.5-1.097-2.5-2.493S11.6 7.89 13 7.89s2.5 1.097 2.5 2.493-1.1 2.493-2.5 2.493zm0-3.989c-.85 0-1.5.648-1.5 1.496s.65 1.496 1.5 1.496 1.5-.648 1.5-1.496-.65-1.496-1.5-1.496z"/></g></g><defs><clipPath id="iclip0_0_1"><path fill="#fff" transform="translate(-1175 -66)" d="M0 0h1920v11486H0z"/></clipPath></defs></svg><svg viewBox="0 0 34 34" fill="none" id="percent" xmlns="http://www.w3.org/2000/svg"><path clip-rule="evenodd" d="M26.115 23.965v-2.3c0-.57.226-1.116.629-1.52l1.627-1.626a2.148 2.148 0 000-3.038l-1.627-1.627a2.148 2.148 0 01-.63-1.519v-2.302a2.148 2.148 0 00-2.147-2.148h-2.302c-.57 0-1.116-.226-1.52-.629L18.52 5.629a2.148 2.148 0 00-3.038 0l-1.627 1.627c-.402.403-.949.63-1.519.63h-2.302a2.148 2.148 0 00-2.148 2.149v2.3c0 .57-.226 1.116-.629 1.52L5.629 15.48a2.148 2.148 0 000 3.038l1.627 1.627c.403.403.63.949.63 1.519v2.3c0 1.186.96 2.148 2.147 2.148h2.302c.57 0 1.116.227 1.52.63l1.626 1.626a2.148 2.148 0 003.038 0l1.627-1.627c.403-.402.949-.629 1.519-.629h2.3a2.148 2.148 0 002.15-2.148z" stroke="#000" stroke-width="1.5" stroke-linecap="round" stroke-linejoin="round"/><path clip-rule="evenodd" d="M12.34 14.67a1.648 1.648 0 112.33-2.33 1.648 1.648 0 01-2.33 2.33z" stroke="#000" stroke-width="1.5" stroke-linecap="round" stroke-linejoin="round"/><path clip-rule="evenodd" d="M19.33 21.66a1.647 1.647 0 112.33-2.33 1.647 1.647 0 01-2.33 2.33z" stroke="#000" stroke-width="1.5" stroke-linecap="round"/><path d="M21.66 12.339l-9.321 9.322" stroke="#000" stroke-width="1.5" stroke-linecap="round"/></svg><svg fill="none" viewBox="0 0 26 26" id="phone" xmlns="http://www.w3.org/2000/svg"><path d="M15.039 5.143a.55.55 0 01.675-.39 7.737 7.737 0 015.533 5.533.551.551 0 11-1.065.284 6.643 6.643 0 00-4.753-4.752.551.551 0 01-.39-.675zm-.345 3.614c1.337.356 2.193 1.212 2.549 2.548a.551.551 0 001.065-.284c-.459-1.719-1.61-2.87-3.329-3.33a.551.551 0 10-.284 1.066zm7.296 8.908A4.982 4.982 0 0117.041 22C9.851 22 4 16.15 4 8.959a4.982 4.982 0 014.332-4.95 1.286 1.286 0 011.337.77l1.938 4.327a1.285 1.285 0 01-.141 1.272L9.53 12.679a.174.174 0 000 .153c.704 1.44 2.214 2.94 3.674 3.642a.172.172 0 00.154-.006l2.268-1.928a1.285 1.285 0 011.271-.15l4.338 1.943a1.285 1.285 0 01.755 1.335v-.003zm-1.092-.136a.183.183 0 00-.11-.183l-4.34-1.945a.175.175 0 00-.147.01l-2.267 1.928a1.286 1.286 0 01-1.316.13c-1.686-.814-3.367-2.48-4.181-4.15a1.285 1.285 0 01.083-1.26.459.459 0 01.04-.053l1.933-2.304a.184.184 0 000-.154L8.66 5.222a.184.184 0 00-.17-.12h-.02a3.88 3.88 0 00-3.368 3.857c0 6.583 5.356 11.939 11.939 11.939a3.879 3.879 0 003.857-3.369z" fill="#000"/></svg><svg viewBox="0 0 442.013 442.013" id="search" xmlns="http://www.w3.org/2000/svg"><path d="M161.586 39.608c-67.287 0-122.027 54.736-122.027 122.02 0 32.597 12.691 63.242 35.734 86.289 23.047 23.047 53.692 35.741 86.292 35.741 32.587 0 63.229-12.691 86.279-35.741 23.054-23.054 35.748-53.695 35.748-86.286.001-67.283-54.739-122.023-122.026-122.023zm75.421 197.445c-20.149 20.146-46.933 31.246-75.421 31.246-28.498 0-55.289-11.1-75.431-31.239-20.142-20.146-31.235-46.93-31.235-75.428 0-58.812 47.855-106.66 106.667-106.66 58.815 0 106.667 47.848 106.667 106.663-.001 28.484-11.095 55.272-31.247 75.418z"/><path d="M427.747 359.09l-96.208-96.208-15.858 15.858-22.835-22.828c46.008-63.877 39.209-152.378-16.975-208.568C245.342 16.814 204.751 0 161.579 0h-.003c-43.165 0-83.76 16.814-114.278 47.34-63.02 63.024-63.02 165.564 0 228.577 56.18 56.194 144.681 62.993 208.562 16.981l22.839 22.828-15.865 15.872L359.04 427.8c9.472 9.472 21.91 14.213 34.352 14.213 12.438-.007 24.887-4.741 34.355-14.213 9.175-9.172 14.23-21.371 14.234-34.352 0-12.977-5.055-25.183-14.234-34.358zm-10.854 57.849c-12.961 12.954-34.041 12.954-46.995 0l-85.347-85.34 23.491-23.504-10.861-10.861-7.629 7.632-32.376-32.366-5.352 4.212c-58.098 45.667-141.356 40.66-193.666-11.653-57.03-57.027-57.03-149.825 0-206.858C85.783 30.573 122.513 15.36 161.582 15.36s75.803 15.217 103.427 42.844c52.313 52.316 57.32 135.578 11.65 193.676l-4.209 5.352 43.237 43.23 15.858-15.858 85.347 85.34c6.274 6.281 9.735 14.619 9.735 23.501-.003 8.874-3.46 17.22-9.734 23.494z"/><path d="M391.624 395.22l-21.668-21.675-10.865 10.861 21.675 21.682c4.553 4.547 9.865 5.226 12.626 5.226 2.765 0 8.079-.679 12.64-5.24l-10.861-10.861a2.52 2.52 0 01-3.547.007zM100.668 100.717c-16.295 16.299-25.269 37.932-25.269 60.921h15.36c0-18.886 7.376-36.663 20.774-50.057 13.394-13.394 31.164-20.77 50.046-20.77h.007v-15.36h-.007c-22.989.001-44.619 8.974-60.911 25.266z"/></svg><svg fill="none" viewBox="0 0 770 245" id="specialsBg" xmlns="http://www.w3.org/2000/svg"><path d="M134.34 0H770L669.541 245H0L134.34 0z" fill="#F1F1F1"/></svg><svg fill="none" viewBox="0 0 26 26" id="time" xmlns="http://www.w3.org/2000/svg"><path d="M13 24.375a11.375 11.375 0 110-22.75 11.375 11.375 0 010 22.75zM13 3.25a9.75 9.75 0 100 19.5 9.75 9.75 0 000-19.5z" fill="#000"/><path d="M16.73 17.875l-4.543-4.542V5.687h1.626v6.972l4.062 4.07-1.146 1.146z" fill="#000"/></svg></svg>