<?xml version="1.0" encoding="utf-8"?><svg viewBox="0 0 26 26" xmlns="http://www.w3.org/2000/svg" xmlns:xlink="http://www.w3.org/1999/xlink"><style>:root>svg{display:none}:root>svg:target{display:block}</style><svg fill="none" viewBox="0 0 26 26" id="location" xmlns="http://www.w3.org/2000/svg"><path fill="#404040" d="M0 0h26v26H0z"/><g clip-path="url(#aclip0_0_1)"><path fill="#fff" d="M-1175-66H745v11486h-1920z"/><g fill="#000"><path d="M13 22.1l-.4-.449c-.25-.25-6.1-7.13-6.1-11.269C6.5 6.792 9.4 3.9 13 3.9s6.5 2.892 6.5 6.482c0 4.139-5.85 11.02-6.1 11.32l-.4.398zm0-17.203c-3.05 0-5.5 2.444-5.5 5.485 0 3.191 4.2 8.577 5.5 10.172 1.3-1.595 5.5-6.98 5.5-10.172A5.477 5.477 0 0013 4.897z"/><path d="M13 12.875c-1.4 0-2.5-1.097-2.5-2.493S11.6 7.89 13 7.89s2.5 1.097 2.5 2.493-1.1 2.493-2.5 2.493zm0-3.989c-.85 0-1.5.648-1.5 1.496s.65 1.496 1.5 1.496 1.5-.648 1.5-1.496-.65-1.496-1.5-1.496z"/></g></g><defs><clipPath id="aclip0_0_1"><path fill="#fff" transform="translate(-1175 -66)" d="M0 0h1920v11486H0z"/></clipPath></defs></svg><svg fill="none" viewBox="0 0 26 26" id="phone" xmlns="http://www.w3.org/2000/svg"><path d="M15.039 5.143a.55.55 0 01.675-.39 7.737 7.737 0 015.533 5.533.551.551 0 11-1.065.284 6.643 6.643 0 00-4.753-4.752.551.551 0 01-.39-.675zm-.345 3.614c1.337.356 2.193 1.212 2.549 2.548a.551.551 0 001.065-.284c-.459-1.719-1.61-2.87-3.329-3.33a.551.551 0 10-.284 1.066zm7.296 8.908A4.982 4.982 0 0117.041 22C9.851 22 4 16.15 4 8.959a4.982 4.982 0 014.332-4.95 1.286 1.286 0 011.337.77l1.938 4.327a1.285 1.285 0 01-.141 1.272L9.53 12.679a.174.174 0 000 .153c.704 1.44 2.214 2.94 3.674 3.642a.172.172 0 00.154-.006l2.268-1.928a1.285 1.285 0 011.271-.15l4.338 1.943a1.285 1.285 0 01.755 1.335v-.003zm-1.092-.136a.183.183 0 00-.11-.183l-4.34-1.945a.175.175 0 00-.147.01l-2.267 1.928a1.286 1.286 0 01-1.316.13c-1.686-.814-3.367-2.48-4.181-4.15a1.285 1.285 0 01.083-1.26.459.459 0 01.04-.053l1.933-2.304a.184.184 0 000-.154L8.66 5.222a.184.184 0 00-.17-.12h-.02a3.88 3.88 0 00-3.368 3.857c0 6.583 5.356 11.939 11.939 11.939a3.879 3.879 0 003.857-3.369z" fill="#000"/></svg></svg>