<svg xmlns="http://www.w3.org/2000/svg" viewBox="0 0 52 52" fill="none">
    <path fill-rule="evenodd" clip-rule="evenodd" d="M12.0795 17.785C13.7029 13.7697 15.6557 11 20.0762 11H31.9257C36.342 11 38.2968 13.7697 39.9224 17.785L41.5458 22.081C42.7554 22.0955 43.8666 22.7504 44.4654 23.8015C44.8176 24.4002 45.0021 25.0828 44.9995 25.7775V31.3169C45.0152 32.6103 44.3623 33.8203 43.2726 34.5173C42.7545 34.84 42.1562 35.0111 41.5458 35.0113H10.454C9.84355 35.0111 9.24534 34.84 8.72716 34.5173C7.63747 33.8203 6.9846 32.6103 7.00031 31.3169V25.7775C6.99803 25.0835 7.18251 24.4017 7.53441 23.8036C8.13318 22.7525 9.24439 22.0976 10.454 22.0831L12.0795 17.785Z" stroke="black" stroke-width="1.5" stroke-linecap="round" stroke-linejoin="round"></path>
    <path d="M14.6599 35.0134C14.6599 34.5992 14.3241 34.2634 13.9099 34.2634C13.4957 34.2634 13.1599 34.5992 13.1599 35.0134H14.6599ZM13.9099 37.7852H13.1599C13.1599 37.7933 13.16 37.8013 13.1603 37.8093L13.9099 37.7852ZM11.3175 40.555L11.2914 41.3045C11.3086 41.3051 11.3258 41.3051 11.3431 41.3045L11.3175 40.555ZM8.72721 37.7831L9.47681 37.8078C9.47708 37.7996 9.47721 37.7913 9.47721 37.7831H8.72721ZM9.47721 34.5173C9.47721 34.1031 9.14143 33.7673 8.72721 33.7673C8.313 33.7673 7.97721 34.1031 7.97721 34.5173H9.47721ZM10.4541 21.3311C10.0399 21.3311 9.70409 21.6668 9.70409 22.0811C9.70409 22.4953 10.0399 22.8311 10.4541 22.8311V21.3311ZM41.5459 22.8311C41.9601 22.8311 42.2959 22.4953 42.2959 22.0811C42.2959 21.6668 41.9601 21.3311 41.5459 21.3311V22.8311ZM38.8421 35.0113C38.8421 34.5971 38.5064 34.2613 38.0921 34.2613C37.6779 34.2613 37.3421 34.5971 37.3421 35.0113H38.8421ZM38.0921 37.7831L38.8406 37.8309C38.8416 37.815 38.8421 37.7991 38.8421 37.7831H38.0921ZM39.3377 40.1692L39.7264 39.5278L39.3377 40.1692ZM42.0293 40.1692L41.6406 39.5278L42.0293 40.1692ZM43.2748 37.7831H42.5248C42.5248 37.7991 42.5253 37.815 42.5263 37.8309L43.2748 37.7831ZM44.0248 34.5173C44.0248 34.1031 43.689 33.7673 43.2748 33.7673C42.8606 33.7673 42.5248 34.1031 42.5248 34.5173H44.0248ZM13.3335 28.1941C12.9193 28.1941 12.5835 28.5298 12.5835 28.9441C12.5835 29.3583 12.9193 29.6941 13.3335 29.6941V28.1941ZM15.4446 29.6941C15.8588 29.6941 16.1946 29.3583 16.1946 28.9441C16.1946 28.5298 15.8588 28.1941 15.4446 28.1941V29.6941ZM36.5552 28.1941C36.141 28.1941 35.8052 28.5298 35.8052 28.9441C35.8052 29.3583 36.141 29.6941 36.5552 29.6941V28.1941ZM38.6663 29.6941C39.0805 29.6941 39.4163 29.3583 39.4163 28.9441C39.4163 28.5298 39.0805 28.1941 38.6663 28.1941V29.6941ZM13.1599 35.0134V37.7852H14.6599V35.0134H13.1599ZM13.1603 37.8093C13.1944 38.876 12.3586 39.769 11.2919 39.8054L11.3431 41.3045C13.2364 41.24 14.7202 39.6547 14.6595 37.7612L13.1603 37.8093ZM11.3436 39.8054C10.277 39.7682 9.44176 38.8745 9.47681 37.8078L7.97762 37.7585C7.9154 39.652 9.39795 41.2385 11.2914 41.3045L11.3436 39.8054ZM9.47721 37.7831V34.5173H7.97721V37.7831H9.47721ZM10.4541 22.8311H41.5459V21.3311H10.4541V22.8311ZM37.3421 35.0113V37.7831H38.8421V35.0113H37.3421ZM37.3437 37.7353C37.2642 38.9794 37.8828 40.1645 38.9489 40.8106L39.7264 39.5278C39.1381 39.1713 38.7968 38.5174 38.8406 37.8309L37.3437 37.7353ZM38.9489 40.8106C40.015 41.4567 41.3519 41.4567 42.418 40.8106L41.6406 39.5278C41.0523 39.8843 40.3146 39.8843 39.7264 39.5278L38.9489 40.8106ZM42.418 40.8106C43.4841 40.1645 44.1027 38.9794 44.0233 37.7353L42.5263 37.8309C42.5702 38.5174 42.2288 39.1713 41.6406 39.5278L42.418 40.8106ZM44.0248 37.7831V34.5173H42.5248V37.7831H44.0248ZM13.3335 29.6941H15.4446V28.1941H13.3335V29.6941ZM36.5552 29.6941H38.6663V28.1941H36.5552V29.6941Z" fill="black"></path>
  </svg>