<svg xmlns="http://www.w3.org/2000/svg" viewBox="0 0 52 52" fill="none">
    <path d="M18.5 11.75C18.9142 11.75 19.25 11.4142 19.25 11C19.25 10.5858 18.9142 10.25 18.5 10.25V11.75ZM33.5 10.25C33.0858 10.25 32.75 10.5858 32.75 11C32.75 11.4142 33.0858 11.75 33.5 11.75V10.25ZM18.5 10.25C18.0858 10.25 17.75 10.5858 17.75 11C17.75 11.4142 18.0858 11.75 18.5 11.75V10.25ZM33.5 11.75C33.9142 11.75 34.25 11.4142 34.25 11C34.25 10.5858 33.9142 10.25 33.5 10.25V11.75ZM19.25 11C19.25 10.5858 18.9142 10.25 18.5 10.25C18.0858 10.25 17.75 10.5858 17.75 11H19.25ZM17.75 13.5C17.75 13.9142 18.0858 14.25 18.5 14.25C18.9142 14.25 19.25 13.9142 19.25 13.5H17.75ZM17.75 11C17.75 11.4142 18.0858 11.75 18.5 11.75C18.9142 11.75 19.25 11.4142 19.25 11H17.75ZM19.25 6C19.25 5.58579 18.9142 5.25 18.5 5.25C18.0858 5.25 17.75 5.58579 17.75 6H19.25ZM34.25 11C34.25 10.5858 33.9142 10.25 33.5 10.25C33.0858 10.25 32.75 10.5858 32.75 11H34.25ZM32.75 13.5C32.75 13.9142 33.0858 14.25 33.5 14.25C33.9142 14.25 34.25 13.9142 34.25 13.5H32.75ZM32.75 11C32.75 11.4142 33.0858 11.75 33.5 11.75C33.9142 11.75 34.25 11.4142 34.25 11H32.75ZM34.25 6C34.25 5.58579 33.9142 5.25 33.5 5.25C33.0858 5.25 32.75 5.58579 32.75 6H34.25ZM18.5 10.25C12.5629 10.25 7.75 15.0629 7.75 21H9.25C9.25 15.8914 13.3914 11.75 18.5 11.75V10.25ZM7.75 21V36H9.25V21H7.75ZM7.75 36C7.75 41.9371 12.5629 46.75 18.5 46.75V45.25C13.3914 45.25 9.25 41.1086 9.25 36H7.75ZM18.5 46.75H33.5V45.25H18.5V46.75ZM33.5 46.75C39.4371 46.75 44.25 41.9371 44.25 36H42.75C42.75 41.1086 38.6086 45.25 33.5 45.25V46.75ZM44.25 36V21H42.75V36H44.25ZM44.25 21C44.25 15.0629 39.4371 10.25 33.5 10.25V11.75C38.6086 11.75 42.75 15.8914 42.75 21H44.25ZM18.5 11.75L33.5 11.75V10.25L18.5 10.25V11.75ZM17.75 11V13.5H19.25V11H17.75ZM19.25 11V6H17.75V11H19.25ZM32.75 11V13.5H34.25V11H32.75ZM34.25 11V6H32.75V11H34.25Z" fill="black"></path>
    <path d="M16 28.5L21 36L36 23.5" stroke="black" stroke-width="1.5" stroke-linecap="round" stroke-linejoin="round"></path>
  </svg>