<svg xmlns="http://www.w3.org/2000/svg" viewBox="0 0 41 41" fill="none">
    <path d="M37.3031 15.1319C37.4171 15.5301 37.8323 15.7605 38.2305 15.6465C38.6287 15.5325 38.8591 15.1173 38.7451 14.7191L37.3031 15.1319ZM33.2881 6.70714L33.8282 6.18678L33.8277 6.18618L33.2881 6.70714ZM23.5961 1.3722L23.7476 0.637669L23.7462 0.637382L23.5961 1.3722ZM12.6727 2.48655L12.3773 1.79718L12.3765 1.7975L12.6727 2.48655ZM4.18692 9.66295L3.55661 9.25649L3.5566 9.2565L4.18692 9.66295ZM6.53819 34.2873L7.08053 33.7692L7.0802 33.7689L6.53819 34.2873ZM30.4103 36.7138L30.8373 37.3303L30.8375 37.3302L30.4103 36.7138ZM38.0717 28.2383C38.2251 27.8536 38.0375 27.4173 37.6528 27.2639C37.268 27.1105 36.8317 27.298 36.6783 27.6828L38.0717 28.2383ZM37.298 14.7368C37.1938 15.1377 37.4344 15.5471 37.8353 15.6513C38.2362 15.7555 38.6456 15.515 38.7498 15.1141L37.298 14.7368ZM40.7278 7.50308C40.8319 7.10218 40.5914 6.69273 40.1905 6.58855C39.7896 6.48436 39.3802 6.72489 39.276 7.12579L40.7278 7.50308ZM37.8242 15.6485C38.2234 15.7588 38.6365 15.5246 38.7468 15.1253C38.8572 14.7261 38.6229 14.313 38.2237 14.2027L37.8242 15.6485ZM30.8439 12.1634C30.4447 12.0531 30.0316 12.2873 29.9213 12.6866C29.8109 13.0858 30.0451 13.4989 30.4444 13.6092L30.8439 12.1634ZM18.4649 14.9255C18.4649 14.5113 18.1292 14.1755 17.7149 14.1755C17.3007 14.1755 16.9649 14.5113 16.9649 14.9255H18.4649ZM17.7149 23.2831H16.9649C16.9649 23.6973 17.3007 24.0331 17.7149 24.0331V23.2831ZM26.0726 24.0331C26.4868 24.0331 26.8226 23.6973 26.8226 23.2831C26.8226 22.8689 26.4868 22.5331 26.0726 22.5331V24.0331ZM38.7451 14.7191C37.8282 11.5158 36.14 8.58623 33.8282 6.18678L32.748 7.22751C34.8896 9.45038 36.4536 12.1644 37.3031 15.1319L38.7451 14.7191ZM33.8277 6.18618C31.1028 3.36415 27.5896 1.43031 23.7476 0.63767L23.4445 2.10673C26.9907 2.83835 30.2335 4.62332 32.7486 7.2281L33.8277 6.18618ZM23.7462 0.637382C19.9269 -0.142995 15.9603 0.261653 12.3773 1.79718L12.9681 3.17591C16.2703 1.76074 19.926 1.38781 23.4459 2.10702L23.7462 0.637382ZM12.3765 1.7975C8.76043 3.35178 5.68973 5.94867 3.55661 9.25649L4.81722 10.0694C6.78871 7.01223 9.62675 4.6121 12.9688 3.17559L12.3765 1.7975ZM3.5566 9.2565C-1.63783 17.312 -0.628848 27.8788 5.99619 34.8057L7.0802 33.7689C0.934798 27.3435 -0.00113893 17.5417 4.81723 10.0694L3.5566 9.2565ZM5.99586 34.8053C12.5277 41.6434 23.0632 42.7143 30.8373 37.3303L29.9833 36.0972C22.8159 41.061 13.1026 40.0737 7.08053 33.7692L5.99586 34.8053ZM30.8375 37.3302C34.0899 35.0763 36.6061 31.914 38.0717 28.2383L36.6783 27.6828C35.322 31.0846 32.9933 34.0113 29.9831 36.0973L30.8375 37.3302ZM38.7498 15.1141L40.7278 7.50308L39.276 7.12579L37.298 14.7368L38.7498 15.1141ZM38.2237 14.2027L30.8439 12.1634L30.4444 13.6092L37.8242 15.6485L38.2237 14.2027ZM16.9649 14.9255V23.2831H18.4649V14.9255H16.9649ZM17.7149 24.0331H26.0726V22.5331H17.7149V24.0331Z" fill="black"></path>
</svg>